<svg id="Capa_1" enable-background="new 0 0 512 512" height="512" viewBox="0 0 512 512" width="512" xmlns="http://www.w3.org/2000/svg"><g><g><path d="m58.702 202.971c-1.461-6.356-2.234-12.975-2.234-19.775 0-48.556 39.363-87.919 87.919-87.919s87.919 39.363 87.919 87.919-39.363 87.919-87.919 87.919c-8.417 0-16.557-1.185-24.265-3.393-4.056 27.291-27.58 48.231-56 48.231-31.272 0-56.623-25.351-56.623-56.623.001-29.443 22.475-53.629 51.203-56.359z" fill="#e9edf5"/></g><g><path d="m453.298 202.971c1.461-6.356 2.234-12.975 2.234-19.775 0-48.556-39.363-87.919-87.919-87.919s-87.919 39.363-87.919 87.919 39.363 87.919 87.919 87.919c8.417 0 16.557-1.185 24.264-3.393 4.056 27.291 27.58 48.231 56 48.231 31.272 0 56.623-25.351 56.623-56.623 0-29.443-22.474-53.629-51.202-56.359z" fill="#e9edf5"/></g><g><path d="m403.66 230.244c-9.302-52.017-45.511-94.819-93.659-113.461-18.566 16.12-30.307 39.895-30.307 66.413 0 48.557 39.363 87.919 87.919 87.919 8.417 0 16.557-1.185 24.264-3.393 4.056 27.291 27.58 48.231 56 48.231 12.514 0 24.073-4.067 33.446-10.941-11.023-36.535-40.559-65.121-77.663-74.768z" fill="#dce1eb"/></g><g><path d="m64.123 315.953c28.42 0 51.944-20.939 56-48.231 7.707 2.208 15.847 3.393 24.265 3.393 48.556 0 87.919-39.363 87.919-87.919 0-26.518-11.741-50.293-30.307-66.413-48.148 18.643-84.358 61.444-93.659 113.461-37.104 9.646-66.64 38.232-77.662 74.767 9.371 6.874 20.93 10.942 33.444 10.942z" fill="#dce1eb"/></g><g><path d="m453.479 356.723c1.645-6.392 2.521-13.094 2.521-20 0-44.183-35.817-80-80-80 0-66.274-53.726-120-120-120s-120 53.726-120 120c-44.183 0-80 35.817-80 80 0 6.906.875 13.608 2.521 20h-21.021c-16.569 0-30 13.431-30 30 0 16.569 13.431 30 30 30h437c16.569 0 30-13.431 30-30 0-16.569-13.431-30-30-30z" fill="#f2f6fc"/></g><g><path d="m245.326 376.245c-61.273-5.402-109.326-56.846-109.326-119.522-44.183 0-80 35.817-80 80 0 6.906.875 13.608 2.521 20h-21.021c-16.569 0-30 13.431-30 30s13.431 30 30 30h265.801c-26.625 0-49.312-16.856-57.975-40.478z" fill="#e9edf5"/></g><g><g><g><ellipse cx="176.355" cy="316.663" fill="#ffa1ac" rx="29.387" ry="23.403"/></g><g><ellipse cx="335.645" cy="316.663" fill="#ffa1ac" rx="29.387" ry="23.403"/></g><g><path d="m279.694 298.682c0-14.643-10.608-16.019-23.693-16.019-13.086 0-23.694 1.376-23.694 16.019s10.608 26.513 23.694 26.513c13.085-.001 23.693-11.871 23.693-26.513z" fill="#495560"/></g></g><g><path d="m181.268 296.223c-4.142 0-7.5-3.358-7.5-7.5v-12c0-4.142 3.358-7.5 7.5-7.5s7.5 3.358 7.5 7.5v12c0 4.142-3.358 7.5-7.5 7.5z"/></g><g><path d="m256 332.695c-17.2 0-31.193-15.258-31.193-34.013 0-23.519 21.859-23.519 31.193-23.519s31.193 0 31.193 23.519c0 18.754-13.993 34.013-31.193 34.013zm0-42.532c-15.539 0-16.193 2.611-16.193 8.519 0 10.484 7.264 19.013 16.193 19.013s16.193-8.529 16.193-19.013c0-5.908-.654-8.519-16.193-8.519z"/></g><g><path d="m330.732 296.223c-4.142 0-7.5-3.358-7.5-7.5v-12c0-4.142 3.358-7.5 7.5-7.5s7.5 3.358 7.5 7.5v12c0 4.142-3.358 7.5-7.5 7.5z"/></g></g><path d="m474.5 349.223h-11.888c.59-4.127.888-8.306.888-12.5 0-5.076-.458-10.045-1.292-14.887 28.875-6.53 49.792-32.132 49.792-62.507 0-16.056-5.964-31.419-16.794-43.259-8.902-9.732-20.457-16.413-33.139-19.278.641-4.491.964-9.04.964-13.596 0-52.614-42.805-95.419-95.419-95.419-33.128 0-63.716 17.159-81.078 45.108-9.876-2.416-20.099-3.662-30.534-3.662-10.514 0-20.734 1.282-30.514 3.693-17.359-27.973-47.941-45.139-81.099-45.139-52.614 0-95.419 42.805-95.419 95.419 0 4.554.323 9.101.963 13.59-6.456 1.453-12.616 3.9-18.391 7.312-3.566 2.107-4.749 6.706-2.642 10.272 1.4 2.369 3.898 3.686 6.464 3.686 1.297 0 2.611-.336 3.809-1.044 6.225-3.678 13.035-5.891 20.24-6.575 2.15-.204 4.108-1.326 5.373-3.078 1.264-1.752 1.711-3.963 1.228-6.069-1.356-5.899-2.043-11.987-2.043-18.095 0-44.343 36.076-80.419 80.419-80.419 26.637 0 51.307 13.143 66.232 34.792-45.831 17.514-79.054 60.748-81.918 111.956-34.743 2.884-63.777 26.162-75.101 57.793-22.356-4.828-38.601-24.554-38.601-47.988 0-8.632 2.269-17.118 6.56-24.54 2.073-3.586.848-8.174-2.738-10.247-3.585-2.073-8.173-.848-10.247 2.738-5.61 9.703-8.575 20.785-8.575 32.049 0 30.374 20.917 55.976 49.792 62.507-.834 4.842-1.292 9.811-1.292 14.887 0 4.194.298 8.373.888 12.5h-11.888c-20.678 0-37.5 16.822-37.5 37.5s16.822 37.5 37.5 37.5h437c20.678 0 37.5-16.822 37.5-37.5s-16.822-37.5-37.5-37.5zm0 60h-437c-12.407 0-22.5-10.093-22.5-22.5s10.093-22.5 22.5-22.5h21.021c2.319 0 4.507-1.072 5.928-2.905 1.42-1.833 1.914-4.219 1.335-6.465-1.515-5.887-2.284-11.987-2.284-18.13 0-39.977 32.523-72.5 72.5-72.5 4.142 0 7.5-3.358 7.5-7.5 0-62.033 50.467-112.5 112.5-112.5 25.197 0 49.014 8.14 68.875 23.54 3.274 2.54 7.985 1.943 10.522-1.331 2.539-3.273 1.942-7.984-1.331-10.522-10.073-7.811-21.048-13.961-32.653-18.387 14.929-21.618 39.596-34.745 66.2-34.745 44.343 0 80.419 36.076 80.419 80.419 0 6.108-.688 12.196-2.043 18.095-.484 2.105-.036 4.317 1.228 6.069s3.222 2.874 5.373 3.078c25.317 2.404 44.41 23.423 44.41 48.89 0 23.434-16.245 43.159-38.599 47.988-11.322-31.631-40.354-54.909-75.097-57.793-1.425-25.989-10.572-50.439-26.67-71.101-2.546-3.268-7.26-3.854-10.526-1.307-3.268 2.545-3.853 7.258-1.307 10.525 15.504 19.9 23.7 43.788 23.7 69.08 0 4.142 3.358 7.5 7.5 7.5 39.977 0 72.5 32.523 72.5 72.5 0 6.144-.769 12.243-2.284 18.13-.578 2.246-.085 4.632 1.335 6.465 1.421 1.833 3.609 2.905 5.928 2.905h21.02c12.407 0 22.5 10.093 22.5 22.5s-10.093 22.502-22.5 22.502z"/></g></svg>